<?xml version="1.0" encoding="utf-8"?>
<!-- Generator: Adobe Illustrator 22.1.0, SVG Export Plug-In . SVG Version: 6.00 Build 0)  -->
<svg version="1.1" id="图层_1" xmlns="http://www.w3.org/2000/svg" xmlns:xlink="http://www.w3.org/1999/xlink" x="0px" y="0px"
	 viewBox="0 0 83.4 24" style="enable-background:new 0 0 83.4 24;" xml:space="preserve">
<style type="text/css">
	.st0{enable-background:new    ;}
	.st1{fill:#FFFFFF;}
</style>
<title>资源 32</title>
<g>
	<g class="st0">
		<path class="st1" d="M26.2,6.5v0.9c-0.1,2.7-0.6,4.8-1.6,6.4L23.8,13c0.8-1.3,1.2-3.2,1.3-5.6V3.6c3.2,0,6.1-0.3,8.6-0.8l0.6,1
			c-2.4,0.4-5.1,0.6-8.1,0.7v0.9h3.8c0-0.2,0.1-0.5,0.1-0.9l1.1,0.1c0,0.2,0,0.5-0.1,0.8h3.7v1.1h-3.9l-0.2,0.9h3v4.2h-1.1V8.4h-4.5
			v3.1h-1.1V7.3h2.5c0-0.2,0.1-0.5,0.2-0.9H26.2z M31.2,8.8c-0.1,1.4-0.6,2.5-1.3,3.3c-0.7,0.8-1.9,1.4-3.4,1.8l-0.6-1.1
			c1.4-0.3,2.4-0.8,3.1-1.4c0.7-0.6,1.1-1.5,1.2-2.6L31.2,8.8z M31.2,11.2c1.3,0.5,2.5,1,3.6,1.7l-0.6,1c-1.1-0.8-2.3-1.4-3.5-1.8
			L31.2,11.2z"/>
		<path class="st1" d="M36,6.5h10.8v0.8H36V6.5z M37.2,7.8h8.5V11H42v0.5h4v0.7h-4v0.6h4.8v0.9H36v-0.9h4.8v-0.6h-3.9v-0.7h3.9V11
			h-3.7V7.8z M37.4,3h8v3h-8V3z M38.3,9.1h2.6V8.5h-2.6V9.1z M40.9,10.3V9.7h-2.6v0.6H40.9z M38.5,4.2h5.8V3.6h-5.8V4.2z M44.4,5.4
			V4.8h-5.8v0.6H44.4z M42,8.5v0.6h2.7V8.5H42z M44.6,10.3V9.7H42v0.6H44.6z"/>
		<path class="st1" d="M48.3,13.7l-0.2-1.1c0.3,0,0.6,0.1,0.9,0.1c0.3,0,0.4-0.2,0.4-0.5V9.7c-0.5,0.2-1,0.4-1.3,0.5l-0.3-1.1
			c0.5-0.1,1.1-0.3,1.6-0.5V6H48V4.9h1.4V2.8h1.1v2.1h1.2V6h-1.2v2.1c0.4-0.2,0.8-0.4,1.2-0.6v1.1C51.4,8.8,51,9,50.5,9.2v3.3
			c0,0.8-0.4,1.2-1.2,1.2H48.3z M52,4.4h2.8V2.8h1.1v1.6h2.8v1.1h-2.8v1.7h2.4v1c-0.4,1.3-1,2.3-1.9,3.2c0.8,0.6,1.7,1,2.7,1.5
			l-0.6,0.9c-1.1-0.5-2.1-1.1-2.9-1.7c-0.9,0.7-2,1.3-3.3,1.7L51.7,13c1.2-0.4,2.2-0.9,3-1.5c-0.9-0.9-1.6-2-1.9-3.2h-0.6V7.2h2.6
			V5.5H52V4.4z M53.9,8.3c0.3,0.9,0.8,1.8,1.6,2.5c0.7-0.7,1.3-1.6,1.6-2.5H53.9z"/>
		<path class="st1" d="M60.3,5.5h4.6V2.8H66v2.8h4.6v1.1H67c0.8,1.9,2.1,3.5,3.9,5l-0.8,1c-2-1.8-3.4-3.7-4.2-5.9v7.2h-1.1V6.7
			c-0.9,2.4-2.3,4.4-4.4,5.9l-0.6-1c1.8-1.3,3.1-3,3.9-5h-3.5V5.5z M68,2.8c0.7,0.7,1.2,1.3,1.6,1.9l-0.9,0.6
			c-0.3-0.5-0.9-1.2-1.6-2L68,2.8z"/>
		<path class="st1" d="M72,7.1h1.5c-0.2-0.5-0.4-1-0.6-1.5l1-0.4c0.2,0.5,0.5,1.2,0.7,1.9h1.1c0.3-0.6,0.5-1.3,0.8-2l1,0.4
			c-0.2,0.6-0.5,1.2-0.7,1.6H78v1.1h-6V7.1z M72.2,3.9h2.3c-0.1-0.4-0.2-0.7-0.3-1l1.2-0.2c0.1,0.3,0.2,0.7,0.3,1.2h2.3v1.1h-5.7
			V3.9z M77.5,9.1v4.6h-1.1v-0.6h-2.7v0.6h-1.1V9.1H77.5z M73.7,12h2.7v-1.9h-2.7V12z M78.5,3.3h4v0.8c-0.4,1.2-0.7,2.4-1.2,3.4
			c0.8,1.2,1.3,2.2,1.3,2.9c0,0.7-0.1,1.2-0.4,1.5c-0.3,0.3-1,0.4-1.9,0.4L80,11.2c0.4,0,0.8,0.1,1,0.1c0.3,0,0.4-0.1,0.5-0.2
			c0.1-0.1,0.1-0.3,0.1-0.6c0-0.8-0.5-1.7-1.4-2.9c0.4-0.9,0.8-2,1.1-3.2h-1.8v9.5h-1.1V3.3z"/>
	</g>
	<g class="st0">
		<path class="st1" d="M28.1,22.3l-0.4,0.4L27,22.1c-0.3,0.2-0.7,0.3-1.1,0.3c-1.3,0-2.1-1.1-2.1-2.4c0-1.3,0.8-2.4,2.1-2.4
			c1.3,0,2.2,1.1,2.2,2.4c0,0.6-0.2,1.3-0.6,1.7L28.1,22.3z M26,21.3l0.4-0.4l0.5,0.5c0.3-0.3,0.4-0.8,0.4-1.3
			c0-0.9-0.4-1.7-1.4-1.7c-1,0-1.4,0.8-1.4,1.7s0.4,1.7,1.4,1.7c0.2,0,0.3,0,0.5-0.1L26,21.3z"/>
		<path class="st1" d="M31.7,22.3H31v-0.5h0c-0.2,0.3-0.6,0.5-0.9,0.5c-0.9,0-1.2-0.4-1.2-1.3V19h0.7v2c0,0.6,0.2,0.8,0.6,0.8
			c0.6,0,0.8-0.4,0.8-0.9V19h0.7V22.3z"/>
		<path class="st1" d="M35.3,21.6c0,0.2,0,0.2,0.2,0.2h0.1c0,0,0.1,0,0.1,0v0.5c-0.1,0-0.3,0.1-0.5,0.1c-0.3,0-0.5-0.1-0.6-0.4
			c-0.3,0.3-0.7,0.4-1.1,0.4c-0.6,0-1.1-0.3-1.1-0.9c0-0.8,0.6-0.9,1.3-1c0.5-0.1,1,0,1-0.5c0-0.4-0.4-0.4-0.7-0.4
			c-0.4,0-0.7,0.2-0.7,0.5h-0.7c0.1-0.8,0.8-1.1,1.5-1.1c0.6,0,1.3,0.3,1.3,0.9V21.6z M34.6,20.7c-0.2,0.1-0.6,0.1-0.9,0.2
			c-0.3,0.1-0.6,0.2-0.6,0.5c0,0.3,0.4,0.4,0.7,0.4c0.3,0,0.8-0.2,0.8-0.6V20.7z"/>
		<path class="st1" d="M36.3,17.8H37v4.5h-0.7V17.8z"/>
		<path class="st1" d="M37.9,17.8h0.7v0.7h-0.7V17.8z M37.9,19h0.7v3.3h-0.7V19z"/>
		<path class="st1" d="M39.2,19h0.5v-1h0.7v1h0.6v0.5h-0.6v1.7c0,0.3,0,0.4,0.3,0.4c0.1,0,0.2,0,0.3,0v0.6c-0.2,0-0.3,0-0.5,0
			c-0.8,0-0.9-0.3-0.9-0.8v-1.9h-0.5V19z"/>
		<path class="st1" d="M41.4,19h0.8l0.8,2.4h0l0.8-2.4h0.7l-1.3,3.4c-0.2,0.6-0.4,1.1-1.2,1.1c-0.2,0-0.3,0-0.5,0v-0.6
			c0.1,0,0.2,0,0.3,0c0.3,0,0.4-0.2,0.5-0.5l0.1-0.3L41.4,19z"/>
	</g>
	<g class="st0">
		<path class="st1" d="M48.5,17.8h3.6v0.7h-1.4v3.8h-0.8v-3.8h-1.4V17.8z"/>
	</g>
	<g class="st0">
		<path class="st1" d="M52.5,20.9c0,0.5,0.3,1,0.9,1c0.4,0,0.7-0.2,0.8-0.5h0.7c-0.2,0.7-0.8,1.1-1.5,1.1c-1,0-1.6-0.7-1.6-1.7
			c0-0.9,0.6-1.7,1.6-1.7c1,0,1.7,0.9,1.5,1.9H52.5z M54.2,20.4c0-0.5-0.3-0.9-0.8-0.9c-0.5,0-0.8,0.4-0.9,0.9H54.2z"/>
		<path class="st1" d="M57.8,20.1c-0.1-0.4-0.3-0.6-0.7-0.6c-0.4,0-0.9,0.2-0.9,1.2c0,0.5,0.2,1.1,0.9,1.1c0.4,0,0.7-0.3,0.8-0.7
			h0.7c-0.1,0.8-0.7,1.3-1.5,1.3c-1,0-1.6-0.7-1.6-1.7c0-1,0.5-1.7,1.6-1.7c0.8,0,1.4,0.4,1.5,1.2H57.8z"/>
		<path class="st1" d="M59.2,17.8h0.7v1.7h0c0.2-0.3,0.5-0.5,1-0.5c0.7,0,1.2,0.4,1.2,1.1v2.2h-0.7v-2c0-0.5-0.2-0.7-0.6-0.7
			c-0.5,0-0.8,0.4-0.8,0.9v1.9h-0.7V17.8z"/>
		<path class="st1" d="M62.9,19h0.7v0.5l0,0c0.2-0.4,0.6-0.6,1-0.6c0.7,0,1.2,0.4,1.2,1.1v2.2h-0.7v-2c0-0.5-0.2-0.7-0.6-0.7
			c-0.5,0-0.8,0.4-0.8,0.9v1.9h-0.7V19z"/>
		<path class="st1" d="M66.5,20.7c0-1,0.6-1.7,1.6-1.7s1.6,0.7,1.6,1.7c0,1-0.6,1.7-1.6,1.7S66.5,21.7,66.5,20.7z M69.1,20.7
			c0-0.6-0.3-1.1-0.9-1.1c-0.6,0-0.9,0.6-0.9,1.1c0,0.6,0.3,1.2,0.9,1.2C68.8,21.8,69.1,21.2,69.1,20.7z"/>
		<path class="st1" d="M70.5,17.8h0.7v4.5h-0.7V17.8z"/>
		<path class="st1" d="M72,20.7c0-1,0.6-1.7,1.6-1.7s1.6,0.7,1.6,1.7c0,1-0.6,1.7-1.6,1.7S72,21.7,72,20.7z M74.6,20.7
			c0-0.6-0.3-1.1-0.9-1.1c-0.6,0-0.9,0.6-0.9,1.1c0,0.6,0.3,1.2,0.9,1.2C74.3,21.8,74.6,21.2,74.6,20.7z"/>
		<path class="st1" d="M79,22.1c0,1-0.6,1.5-1.6,1.5c-0.7,0-1.4-0.3-1.5-1h0.7c0.1,0.4,0.4,0.5,0.8,0.5c0.6,0,0.8-0.3,0.8-0.8v-0.5
			h0c-0.2,0.4-0.6,0.6-1,0.6c-1,0-1.5-0.8-1.5-1.7c0-0.9,0.5-1.6,1.5-1.6c0.4,0,0.8,0.2,1,0.5h0V19H79V22.1z M78.3,20.6
			c0-0.6-0.3-1.1-0.9-1.1c-0.6,0-0.9,0.6-0.9,1.1c0,0.5,0.3,1.1,0.9,1.1C78.1,21.7,78.3,21.2,78.3,20.6z"/>
		<path class="st1" d="M79.5,19h0.8l0.8,2.4h0L82,19h0.7l-1.3,3.4c-0.2,0.6-0.4,1.1-1.2,1.1c-0.2,0-0.3,0-0.5,0v-0.6
			c0.1,0,0.2,0,0.3,0c0.3,0,0.4-0.2,0.5-0.5l0.1-0.3L79.5,19z"/>
	</g>
	<polygon class="st1" points="18.2,7.1 18.2,15 21,16.6 21,5.4 21,5.4 18.2,7.1 	"/>
	<polygon class="st1" points="18.2,7.1 21,5.4 11.6,0 11.6,3.3 	"/>
	<polygon class="st1" points="10.5,20.7 10.5,24 20,18.4 17.2,16.7 	"/>
	<polygon class="st1" points="3.8,16.7 1,18.4 10.5,24 10.5,20.7 	"/>
	<polygon class="st1" points="9.4,3.3 9.4,0 0,5.4 2.8,7.1 	"/>
	<polygon class="st1" points="2.8,7.1 2.8,7.1 0,5.4 0,5.4 0,16.6 2.8,15 	"/>
	<rect x="5.9" y="7.7" class="st1" width="9.2" height="2.9"/>
	<rect x="9.1" y="8.9" class="st1" width="2.8" height="8.5"/>
</g>
</svg>
