<svg xmlns="http://www.w3.org/2000/svg" viewBox="0 0 130.27 32"><defs><style>.cls-1{fill:#00a2ed;}.cls-2{fill:#fff;}</style></defs><title>ultron</title><g id="图层_2" data-name="图层 2"><g id="图层_1-2" data-name="图层 1"><path class="cls-1" d="M130,31.72a23.87,23.87,0,0,1-7.06,0,23.93,23.93,0,0,1,0-7.07,23.87,23.87,0,0,1,7.06,0A23.28,23.28,0,0,1,130,31.72Z"/><path class="cls-2" d="M0,.13A19.07,19.07,0,0,1,2.27,0,18.08,18.08,0,0,1,4.48.13V17.9a26.41,26.41,0,0,0,.35,4.62A8.42,8.42,0,0,0,6,25.64a4.67,4.67,0,0,0,2,1.77,7.77,7.77,0,0,0,3.16.57,7.65,7.65,0,0,0,3.14-.57,4.73,4.73,0,0,0,2.05-1.76,8.55,8.55,0,0,0,1.13-3.12,25.54,25.54,0,0,0,.35-4.62V.13a19.83,19.83,0,0,1,4.49,0V18.7a24.12,24.12,0,0,1-.59,5.62,10.66,10.66,0,0,1-1.91,4.19,8.47,8.47,0,0,1-3.47,2.59,13.56,13.56,0,0,1-5.16.9A13.6,13.6,0,0,1,6,31.1a8.44,8.44,0,0,1-3.46-2.59A10.68,10.68,0,0,1,.65,24.32,24.67,24.67,0,0,1,.06,18.7Z"/><path class="cls-2" d="M28.21.35c.36-.06.71-.1,1.07-.13s.74,0,1.07,0a9.93,9.93,0,0,1,1.06,0c.36,0,.72.07,1.07.13V24.68a6.87,6.87,0,0,0,.22,1.92,2.56,2.56,0,0,0,.59,1.07,1.75,1.75,0,0,0,.87.48,5.54,5.54,0,0,0,1.07.1,7.17,7.17,0,0,0,.89,0,4.85,4.85,0,0,0,.85-.13,13.2,13.2,0,0,1,.39,3.31,5.64,5.64,0,0,1-1.47.29c-.58,0-1.11.06-1.61.06a9.43,9.43,0,0,1-2.36-.3,5.17,5.17,0,0,1-1.91-1,4.64,4.64,0,0,1-1.31-1.87,7.78,7.78,0,0,1-.48-2.95Z"/><path class="cls-2" d="M41.82,12.54h-3.4l-.19-.61,7.51-8.37h.34V9.1h5.67a6.6,6.6,0,0,1,.18,1.66c0,.3,0,.61,0,.91a4.38,4.38,0,0,1-.14.87H46.08v10.2a22.44,22.44,0,0,0,.16,3,4.52,4.52,0,0,0,.52,1.67,1.8,1.8,0,0,0,1,.79,5.63,5.63,0,0,0,1.59.19,9.3,9.3,0,0,0,1.39-.11c.44-.07.83-.15,1.18-.24a7.31,7.31,0,0,1,.37,1.79c0,.61.07,1.15.07,1.61a14.65,14.65,0,0,1-1.83.33,20.11,20.11,0,0,1-2,.11,7.29,7.29,0,0,1-4.91-1.53c-1.17-1-1.76-2.7-1.76-5.06Z"/><path class="cls-2" d="M57,9.1A7.82,7.82,0,0,1,58,9a6.94,6.94,0,0,1,.91-.05,6.18,6.18,0,0,1,1,.05,5.23,5.23,0,0,1,.87.13c.09.43.18,1,.26,1.72a16.27,16.27,0,0,1,.13,1.85,9,9,0,0,1,2.42-2.58A6.45,6.45,0,0,1,67.36,9h.74a4.5,4.5,0,0,1,.63.07,7.39,7.39,0,0,1,.14.82c0,.31,0,.61,0,.92a8,8,0,0,1-.07,1.09c0,.38-.09.73-.15,1.09a3.06,3.06,0,0,0-.74-.09h-.58a7.49,7.49,0,0,0-2.21.33,4.66,4.66,0,0,0-1.92,1.15,5.77,5.77,0,0,0-1.35,2.27,11.23,11.23,0,0,0-.5,3.69V31.44c-.35.06-.71.1-1.07.13s-.74,0-1.07,0a10.12,10.12,0,0,1-1.07,0c-.39-.05-.73-.07-1.11-.13Z"/><path class="cls-2" d="M81.35,32a11,11,0,0,1-4.57-.89,9,9,0,0,1-3.27-2.46,10.39,10.39,0,0,1-1.94-3.69,17.26,17.26,0,0,1,0-9.24A10.34,10.34,0,0,1,73.51,12a9.41,9.41,0,0,1,3.27-2.49,11.9,11.9,0,0,1,9.15,0A9.41,9.41,0,0,1,89.2,12a10.26,10.26,0,0,1,1.94,3.68,17.26,17.26,0,0,1,0,9.24,10.3,10.3,0,0,1-1.94,3.69,9.09,9.09,0,0,1-3.27,2.46A11,11,0,0,1,81.35,32Zm0-3.44a5,5,0,0,0,4.43-2.21,10.71,10.71,0,0,0,1.44-6.06,11.44,11.44,0,0,0-1.44-6,5,5,0,0,0-4.43-2.15,4.89,4.89,0,0,0-4.42,2.15,11,11,0,0,0-1.41,6,11.14,11.14,0,0,0,1.41,6.06A4.92,4.92,0,0,0,81.35,28.54Z"/><path class="cls-2" d="M95.66,9.1A8.14,8.14,0,0,1,96.6,9c.3,0,.62-.05.94-.05a6.73,6.73,0,0,1,.89.05,5.27,5.27,0,0,1,.9.13c.08.43.17,1,.26,1.76a16.61,16.61,0,0,1,.13,1.86,9.23,9.23,0,0,1,2.65-2.82,8.19,8.19,0,0,1,2-1,8.34,8.34,0,0,1,2.49-.37c2.55,0,4.42.74,5.66,2.22s1.83,3.64,1.83,6.51V31.47a10,10,0,0,1-1.08.14c-.41,0-.77,0-1.09,0a10.21,10.21,0,0,1-1.07,0,9.48,9.48,0,0,1-1.07-.14v-13a8.48,8.48,0,0,0-1-4.56,3.38,3.38,0,0,0-3-1.47,6.11,6.11,0,0,0-2.31.43,5.07,5.07,0,0,0-1.91,1.36,6.64,6.64,0,0,0-1.34,2.37,10.73,10.73,0,0,0-.5,3.51V31.44a9.48,9.48,0,0,1-1.07.14c-.39,0-.75,0-1.06,0a10.58,10.58,0,0,1-1.09,0,9.84,9.84,0,0,1-1.09-.14Z"/></g></g></svg>